<svg width="64" height="64" viewBox="0 0 64 64" fill="none" xmlns="http://www.w3.org/2000/svg">
<rect opacity="0.64" width="64" height="64" fill="white"/>
<path d="M17.1793 51V29.1818H21.256V32.733H21.5259C21.9805 31.5303 22.7238 30.5928 23.756 29.9205C24.7882 29.2386 26.024 28.8977 27.4634 28.8977C28.9218 28.8977 30.1433 29.2386 31.1282 29.9205C32.1225 30.6023 32.8564 31.5398 33.3299 32.733H33.5572C34.078 31.5682 34.9066 30.6402 36.043 29.9489C37.1793 29.2481 38.5335 28.8977 40.1055 28.8977C42.0846 28.8977 43.6992 29.518 44.9492 30.7585C46.2087 31.9991 46.8384 33.8693 46.8384 36.3693V51H42.5913V36.767C42.5913 35.2898 42.1888 34.2197 41.3839 33.5568C40.579 32.8939 39.6178 32.5625 38.5004 32.5625C37.1178 32.5625 36.043 32.9886 35.2759 33.8409C34.5089 34.6837 34.1254 35.768 34.1254 37.0938V51H29.8924V36.4972C29.8924 35.3134 29.5231 34.3617 28.7844 33.642C28.0458 32.9223 27.0846 32.5625 25.9009 32.5625C25.096 32.5625 24.3526 32.7756 23.6708 33.2017C22.9985 33.6184 22.454 34.2008 22.0373 34.9489C21.6301 35.697 21.4265 36.5634 21.4265 37.5483V51H17.1793Z" fill="#333333"/>
<path d="M32.5 18L37.2631 26.25H27.7369L32.5 18Z" fill="#00712B"/>
<path d="M32.5 14L37.2631 21.5H27.7369L32.5 14Z" fill="#00712B"/>
<path d="M32.5 9L37.2631 17.25H27.7369L32.5 9Z" fill="#00712B"/>
</svg>
