<svg width="1200" height="630" viewBox="0 0 1200 630" fill="none" xmlns="http://www.w3.org/2000/svg">
<g clip-path="url(#clip0_413_240)">
<rect width="1200" height="630" fill="white"/>
<rect x="654" y="376" width="203" height="254" fill="#00712B"/>
<rect x="541" width="120" height="268" fill="#00712B"/>
<rect x="681" width="120" height="268" fill="#00712B"/>
<rect x="823" width="120" height="268" fill="#00712B"/>
<rect x="857" y="376" width="121" height="253" fill="#8C6239"/>
<rect x="992" y="376" width="113" height="253" fill="#8C6239"/>
<rect x="447" width="75" height="268" fill="#8C6239"/>
<rect x="68" y="376" width="76" height="253" fill="#8C6239"/>
<rect x="460" y="630" width="203" height="254" transform="rotate(-180 460 630)" fill="#00712B"/>
<rect x="2" y="169" width="75.0001" height="416" transform="rotate(-90 2 169)" fill="#00712B"/>
<rect x="2" y="268" width="75.0001" height="416" transform="rotate(-90 2 268)" fill="#00712B"/>
<path d="M1037 268L942 0V268H1037Z" fill="#00712B"/>
<path d="M1132 268L1037 0V268H1132Z" fill="#00712B"/>
<path d="M1105 376L1200 615L1200 376L1105 376Z" fill="#00712B"/>
<path d="M144 376L238 630L238 376L144 376Z" fill="#00712B"/>
<path d="M95 630L0 376L0 630H95Z" fill="#00712B"/>
<path d="M418 1.08576e-06L177 94L418 94L418 1.08576e-06Z" fill="#00712B"/>
<path d="M557 630L654 376V630H557Z" fill="#00712B"/>
<path d="M472 630L567 376V630H472Z" fill="#8C6239"/>
<circle cx="826.5" cy="469.5" r="23.5" fill="white"/>
<ellipse cx="281" cy="561" rx="24" ry="23" transform="rotate(-180 281 561)" fill="white"/>
<ellipse cx="258" cy="125" rx="23" ry="23" transform="rotate(-90 258 125)" fill="white"/>
<circle cx="788.5" cy="536.5" r="22.5" fill="white"/>
<ellipse cx="295" cy="500.5" rx="23" ry="22.5" transform="rotate(-180 295 500.5)" fill="white"/>
<ellipse cx="311" cy="156" rx="23" ry="22" transform="rotate(-90 311 156)" fill="white"/>
<circle cx="765.5" cy="430.5" r="23.5" fill="white"/>
<ellipse cx="378.5" cy="520" rx="23.5" ry="23" transform="rotate(-180 378.5 520)" fill="white"/>
<ellipse cx="287" cy="192.5" rx="23.5" ry="24" transform="rotate(-90 287 192.5)" fill="white"/>
<ellipse cx="364.5" cy="589" rx="24.5" ry="24" transform="rotate(-180 364.5 589)" fill="white"/>
<ellipse cx="219.5" cy="179" rx="23" ry="23.5" transform="rotate(-90 219.5 179)" fill="white"/>
<ellipse cx="153.5" cy="149" rx="23" ry="23.5" transform="rotate(-90 153.5 149)" fill="white"/>
<ellipse cx="140" cy="204" rx="23" ry="23" transform="rotate(-90 140 204)" fill="white"/>
<ellipse cx="60.5" cy="204" rx="23" ry="23.5" transform="rotate(-90 60.5 204)" fill="white"/>
<ellipse cx="71" cy="149" rx="23" ry="24" transform="rotate(-90 71 149)" fill="white"/>
<ellipse cx="724.5" cy="565" rx="23.5" ry="24" fill="white"/>
<ellipse cx="388.5" cy="454.5" rx="23.5" ry="23.5" transform="rotate(-180 388.5 454.5)" fill="white"/>
<ellipse cx="351.5" cy="204" rx="23" ry="23.5" transform="rotate(-90 351.5 204)" fill="white"/>
<ellipse cx="834" cy="590" rx="23" ry="24" fill="white"/>
<ellipse cx="318" cy="443.5" rx="22" ry="23.5" transform="rotate(-180 318 443.5)" fill="white"/>
<ellipse cx="364.5" cy="156" rx="23" ry="23.5" transform="rotate(-90 364.5 156)" fill="white"/>
<ellipse cx="247" cy="450.5" rx="24" ry="22.5" transform="rotate(-180 247 450.5)" fill="white"/>
<ellipse cx="356" cy="84" rx="23" ry="23" transform="rotate(-90 356 84)" fill="white"/>
<circle cx="665.5" cy="528.5" r="24.5" fill="white"/>
<ellipse cx="457" cy="440.5" rx="24" ry="23.5" transform="rotate(-180 457 440.5)" fill="white"/>
<ellipse cx="316.5" cy="263" rx="24" ry="24.5" transform="rotate(-90 316.5 263)" fill="white"/>
<ellipse cx="683.5" cy="469.5" rx="24.5" ry="23.5" fill="white"/>
<ellipse cx="430.5" cy="549" rx="24.5" ry="23" transform="rotate(-180 430.5 549)" fill="white"/>
<ellipse cx="258" cy="244.5" rx="23.5" ry="23" transform="rotate(-90 258 244.5)" fill="white"/>
<path d="M391.809 332V305.818H396.701V310.08H397.025C397.57 308.636 398.462 307.511 399.701 306.705C400.94 305.886 402.423 305.477 404.15 305.477C405.9 305.477 407.366 305.886 408.548 306.705C409.741 307.523 410.621 308.648 411.19 310.08H411.462C412.087 308.682 413.082 307.568 414.445 306.739C415.809 305.898 417.434 305.477 419.32 305.477C421.695 305.477 423.633 306.222 425.133 307.71C426.644 309.199 427.4 311.443 427.4 314.443V332H422.303V314.92C422.303 313.148 421.82 311.864 420.854 311.068C419.888 310.273 418.735 309.875 417.394 309.875C415.735 309.875 414.445 310.386 413.525 311.409C412.604 312.42 412.144 313.722 412.144 315.312V332H407.065V314.597C407.065 313.176 406.621 312.034 405.735 311.17C404.849 310.307 403.695 309.875 402.275 309.875C401.309 309.875 400.417 310.131 399.599 310.642C398.792 311.142 398.138 311.841 397.638 312.739C397.15 313.636 396.906 314.676 396.906 315.858V332H391.809ZM465.85 332.58C464.191 332.58 462.691 332.273 461.35 331.659C460.009 331.034 458.947 330.131 458.163 328.949C457.39 327.767 457.004 326.318 457.004 324.602C457.004 323.125 457.288 321.909 457.856 320.955C458.424 320 459.191 319.244 460.157 318.688C461.123 318.131 462.202 317.71 463.396 317.426C464.589 317.142 465.805 316.926 467.043 316.778C468.612 316.597 469.884 316.449 470.862 316.335C471.839 316.21 472.549 316.011 472.992 315.739C473.435 315.466 473.657 315.023 473.657 314.409V314.29C473.657 312.801 473.237 311.648 472.396 310.83C471.566 310.011 470.327 309.602 468.68 309.602C466.964 309.602 465.612 309.983 464.623 310.744C463.646 311.494 462.969 312.33 462.594 313.25L457.805 312.159C458.373 310.568 459.202 309.284 460.293 308.307C461.396 307.318 462.663 306.602 464.094 306.159C465.526 305.705 467.032 305.477 468.612 305.477C469.657 305.477 470.765 305.602 471.935 305.852C473.117 306.091 474.219 306.534 475.242 307.182C476.276 307.83 477.123 308.756 477.782 309.96C478.441 311.153 478.771 312.705 478.771 314.614V332H473.793V328.42H473.589C473.259 329.08 472.765 329.727 472.106 330.364C471.447 331 470.6 331.528 469.566 331.949C468.532 332.369 467.293 332.58 465.85 332.58ZM466.958 328.489C468.367 328.489 469.572 328.21 470.572 327.653C471.583 327.097 472.35 326.369 472.873 325.472C473.407 324.562 473.674 323.591 473.674 322.557V319.182C473.492 319.364 473.14 319.534 472.617 319.693C472.106 319.841 471.521 319.972 470.862 320.085C470.202 320.187 469.56 320.284 468.935 320.375C468.31 320.455 467.788 320.523 467.367 320.58C466.379 320.705 465.475 320.915 464.657 321.21C463.85 321.506 463.202 321.932 462.714 322.489C462.237 323.034 461.998 323.761 461.998 324.67C461.998 325.932 462.464 326.886 463.396 327.534C464.327 328.17 465.515 328.489 466.958 328.489ZM509.559 332V305.818H514.485V309.977H514.758C515.235 308.568 516.076 307.46 517.281 306.653C518.496 305.835 519.871 305.426 521.406 305.426C521.724 305.426 522.099 305.437 522.531 305.46C522.974 305.483 523.32 305.511 523.57 305.545V310.42C523.366 310.364 523.002 310.301 522.479 310.233C521.957 310.153 521.434 310.114 520.911 310.114C519.707 310.114 518.633 310.369 517.69 310.881C516.758 311.381 516.019 312.08 515.474 312.977C514.928 313.864 514.656 314.875 514.656 316.011V332H509.559ZM562.021 342.364C559.941 342.364 558.151 342.091 556.651 341.545C555.163 341 553.947 340.278 553.004 339.381C552.06 338.483 551.356 337.5 550.89 336.432L555.271 334.625C555.577 335.125 555.987 335.653 556.498 336.21C557.021 336.778 557.725 337.261 558.612 337.659C559.509 338.057 560.663 338.256 562.072 338.256C564.004 338.256 565.6 337.784 566.862 336.841C568.123 335.909 568.754 334.42 568.754 332.375V327.227H568.43C568.123 327.784 567.68 328.403 567.1 329.085C566.532 329.767 565.748 330.358 564.748 330.858C563.748 331.358 562.447 331.608 560.844 331.608C558.776 331.608 556.913 331.125 555.254 330.159C553.606 329.182 552.299 327.744 551.333 325.847C550.379 323.937 549.901 321.591 549.901 318.807C549.901 316.023 550.373 313.636 551.316 311.648C552.271 309.659 553.577 308.136 555.237 307.08C556.896 306.011 558.776 305.477 560.879 305.477C562.504 305.477 563.816 305.75 564.816 306.295C565.816 306.83 566.594 307.455 567.151 308.17C567.719 308.886 568.157 309.517 568.464 310.062H568.839V305.818H573.833V332.58C573.833 334.83 573.31 336.676 572.265 338.119C571.219 339.563 569.805 340.631 568.021 341.324C566.248 342.017 564.248 342.364 562.021 342.364ZM561.969 327.381C563.435 327.381 564.674 327.04 565.685 326.358C566.708 325.665 567.481 324.676 568.004 323.392C568.538 322.097 568.805 320.545 568.805 318.739C568.805 316.977 568.543 315.426 568.021 314.085C567.498 312.744 566.731 311.699 565.719 310.949C564.708 310.187 563.458 309.807 561.969 309.807C560.435 309.807 559.157 310.205 558.134 311C557.112 311.784 556.339 312.852 555.816 314.205C555.305 315.557 555.049 317.068 555.049 318.739C555.049 320.455 555.31 321.96 555.833 323.256C556.356 324.551 557.129 325.562 558.151 326.29C559.185 327.017 560.458 327.381 561.969 327.381ZM604.668 332V305.818H609.765V332H604.668ZM607.242 301.778C606.356 301.778 605.594 301.483 604.958 300.892C604.333 300.29 604.021 299.574 604.021 298.744C604.021 297.903 604.333 297.187 604.958 296.597C605.594 295.994 606.356 295.693 607.242 295.693C608.129 295.693 608.884 295.994 609.509 296.597C610.146 297.187 610.464 297.903 610.464 298.744C610.464 299.574 610.146 300.29 609.509 300.892C608.884 301.483 608.129 301.778 607.242 301.778ZM645.718 316.455V332H640.621V305.818H645.513V310.08H645.837C646.44 308.693 647.383 307.58 648.667 306.739C649.962 305.898 651.593 305.477 653.559 305.477C655.343 305.477 656.906 305.852 658.246 306.602C659.587 307.341 660.627 308.443 661.366 309.909C662.104 311.375 662.474 313.187 662.474 315.347V332H657.377V315.96C657.377 314.062 656.883 312.58 655.894 311.511C654.906 310.432 653.548 309.892 651.82 309.892C650.638 309.892 649.587 310.148 648.667 310.659C647.758 311.17 647.036 311.92 646.502 312.909C645.979 313.886 645.718 315.068 645.718 316.455ZM700.928 332.58C699.269 332.58 697.769 332.273 696.428 331.659C695.087 331.034 694.025 330.131 693.241 328.949C692.468 327.767 692.082 326.318 692.082 324.602C692.082 323.125 692.366 321.909 692.934 320.955C693.502 320 694.269 319.244 695.235 318.688C696.201 318.131 697.281 317.71 698.474 317.426C699.667 317.142 700.883 316.926 702.121 316.778C703.69 316.597 704.962 316.449 705.94 316.335C706.917 316.21 707.627 316.011 708.07 315.739C708.513 315.466 708.735 315.023 708.735 314.409V314.29C708.735 312.801 708.315 311.648 707.474 310.83C706.644 310.011 705.406 309.602 703.758 309.602C702.042 309.602 700.69 309.983 699.701 310.744C698.724 311.494 698.048 312.33 697.673 313.25L692.883 312.159C693.451 310.568 694.281 309.284 695.371 308.307C696.474 307.318 697.741 306.602 699.173 306.159C700.604 305.705 702.11 305.477 703.69 305.477C704.735 305.477 705.843 305.602 707.013 305.852C708.195 306.091 709.298 306.534 710.32 307.182C711.354 307.83 712.201 308.756 712.86 309.96C713.519 311.153 713.849 312.705 713.849 314.614V332H708.871V328.42H708.667C708.337 329.08 707.843 329.727 707.184 330.364C706.525 331 705.678 331.528 704.644 331.949C703.61 332.369 702.371 332.58 700.928 332.58ZM702.036 328.489C703.445 328.489 704.65 328.21 705.65 327.653C706.661 327.097 707.428 326.369 707.951 325.472C708.485 324.562 708.752 323.591 708.752 322.557V319.182C708.57 319.364 708.218 319.534 707.695 319.693C707.184 319.841 706.599 319.972 705.94 320.085C705.281 320.187 704.638 320.284 704.013 320.375C703.388 320.455 702.866 320.523 702.445 320.58C701.457 320.705 700.553 320.915 699.735 321.21C698.928 321.506 698.281 321.932 697.792 322.489C697.315 323.034 697.076 323.761 697.076 324.67C697.076 325.932 697.542 326.886 698.474 327.534C699.406 328.17 700.593 328.489 702.036 328.489ZM744.637 332V305.818H749.563V309.977H749.836C750.313 308.568 751.154 307.46 752.359 306.653C753.575 305.835 754.95 305.426 756.484 305.426C756.802 305.426 757.177 305.437 757.609 305.46C758.052 305.483 758.398 305.511 758.648 305.545V310.42C758.444 310.364 758.08 310.301 757.558 310.233C757.035 310.153 756.512 310.114 755.989 310.114C754.785 310.114 753.711 310.369 752.768 310.881C751.836 311.381 751.097 312.08 750.552 312.977C750.006 313.864 749.734 314.875 749.734 316.011V332H744.637ZM791.077 341.818C790.316 341.818 789.623 341.756 788.998 341.631C788.373 341.517 787.907 341.392 787.6 341.256L788.827 337.08C789.759 337.33 790.589 337.438 791.316 337.403C792.043 337.369 792.685 337.097 793.242 336.585C793.81 336.074 794.31 335.239 794.742 334.08L795.373 332.341L785.793 305.818H791.248L797.879 326.136H798.151L804.782 305.818H810.254L799.464 335.494C798.964 336.858 798.327 338.011 797.555 338.955C796.782 339.909 795.862 340.625 794.793 341.102C793.725 341.58 792.487 341.818 791.077 341.818Z" fill="#333333"/>
<ellipse cx="878" cy="521" rx="24" ry="22" fill="white"/>
</g>
<defs>
<clipPath id="clip0_413_240">
<rect width="1200" height="630" fill="white"/>
</clipPath>
</defs>
</svg>
